<?xml version="1.0" encoding="UTF-8" standalone="no"?>
<!DOCTYPE svg PUBLIC "-//W3C//DTD SVG 1.1//EN" "http://www.w3.org/Graphics/SVG/1.1/DTD/svg11.dtd">
<svg width="100%" height="100%" viewBox="0 0 512 512" version="1.1" xmlns="http://www.w3.org/2000/svg" xmlns:xlink="http://www.w3.org/1999/xlink" xml:space="preserve" xmlns:serif="http://www.serif.com/" style="fill-rule:evenodd;clip-rule:evenodd;stroke-linecap:round;stroke-linejoin:round;stroke-miterlimit:10;">
    <g>
        <path d="M0,512L512,512L512,0L0,0L0,512" style="fill:rgb(201,38,19);fill-rule:nonzero;"/>
        <g transform="matrix(1,0,0,1,-69.912,-100.1)">
            <path d="M346,145L162,145L114,216L376.094,612.1L581.912,612.1L581.912,516.576L346,145Z" style="fill:rgb(1,1,1);fill-opacity:0.1;fill-rule:nonzero;"/>
        </g>
        <path d="M217.02,234.431L215.568,239.573L217.02,234.433L217.02,234.431" style="fill:rgb(93,163,194);fill-rule:nonzero;"/>
        <g transform="matrix(1,0,0,1,-71.912,-102.1)">
            <path d="M133.132,219.333L241.936,335.629L190.73,219.333L133.132,219.333ZM205.287,219.333L255.212,345.305L306.383,219.333L205.287,219.333ZM374.878,219.333L320.94,219.333L267.853,335.345L374.878,219.333ZM211.57,207.009L302.227,207.009L256.899,159.664L211.57,207.009ZM334.854,155.614L268.834,155.614L314.068,202.862L334.854,155.614ZM176.816,155.614L198.271,204.385L244.966,155.614L176.816,155.614ZM375.017,207.009L345.969,163.438L326.802,207.009L375.017,207.009ZM137.348,207.009L184.868,207.009L166.129,164.411L137.348,207.009ZM163.588,147L348.228,147L393.912,215.526L254.956,364L116,217.43L163.588,147Z" style="fill:none;fill-rule:nonzero;stroke:rgb(255,248,195);stroke-width:5px;"/>
        </g>
        <g id="Layer1">
            <g transform="matrix(1,0,0,1,1,0)">
                <path d="M253,412.902L323.007,416.982L335.779,302.024L478.569,512L319.225,512L253,412.902Z" style="fill-opacity:0.2;"/>
            </g>
            <g transform="matrix(1,0,0,1,90,0)">
                <path d="M260.802,410.567L312.405,427.307L345.625,407.012L286.376,341.482L301.912,316.368L348.735,322.338L422,438.145L422,512L328.563,512L260.802,410.567Z" style="fill:rgb(132,24,13);"/>
            </g>
        </g>
        <g transform="matrix(1,0,0,1,-10,-12)">
            <g id="j" transform="matrix(0.46717,0,0,0.46717,186.613,178.904)">
                <path d="M165.65,526.474L213.863,497.296C223.164,513.788 231.625,527.74 251.92,527.74C271.374,527.74 283.639,520.13 283.639,490.53L283.639,289.23L342.842,289.23L342.842,491.368C342.842,552.688 306.899,580.599 254.457,580.599C207.096,580.599 179.605,556.07 165.65,526.469" style="fill:rgb(247,223,30);fill-rule:nonzero;"/>
            </g>
            <g id="s" transform="matrix(0.46717,0,0,0.46717,185.613,178.904)">
                <path d="M375,520.13L423.206,492.219C435.896,512.943 452.389,528.166 481.568,528.166C506.099,528.166 521.741,515.901 521.741,498.985C521.741,478.686 505.673,471.496 478.606,459.659L463.809,453.311C421.094,435.13 392.759,412.294 392.759,364.084C392.759,319.68 426.59,285.846 479.454,285.846C517.091,285.846 544.156,298.957 563.608,333.212L517.511,362.814C507.361,344.631 496.369,337.442 479.454,337.442C462.115,337.442 451.119,348.437 451.119,362.814C451.119,380.576 462.115,387.766 487.486,398.762L502.286,405.105C552.611,426.674 580.946,448.662 580.946,498.139C580.946,551.426 539.08,580.604 482.836,580.604C427.86,580.604 392.336,554.386 375,520.13" style="fill:rgb(247,223,30);fill-rule:nonzero;"/>
            </g>
        </g>
    </g>
</svg>
